<svg xmlns="http://www.w3.org/2000/svg" viewBox="0 0 72 68" role="img"><rect width="72" height="68" rx="18" fill="#eef8fb"/><path d="M9 18h50c4 0 7 3 7 7v25H3V24c0-4 2-6 6-6Z" fill="#ffc83d"/><path d="M13 25h13v13H10V29c0-2 1-4 3-4Zm19 0h13v13H32Zm19 0h5c3 0 5 2 6 5l2 8H51Z" fill="#dff7ff"/><path d="M7 44h59" stroke="#173f53" stroke-width="3" opacity=".2"/><circle cx="20" cy="52" r="8" fill="#173f53"/><circle cx="20" cy="52" r="3" fill="#dcecf1"/><circle cx="54" cy="52" r="8" fill="#173f53"/><circle cx="54" cy="52" r="3" fill="#dcecf1"/></svg>
